<?xml version="1.0" encoding="UTF-8" standalone="no"?>
<svg width="30px" height="30px" viewBox="0 0 30 30" version="1.1" xmlns="http://www.w3.org/2000/svg" xmlns:xlink="http://www.w3.org/1999/xlink">
    <!-- Generator: Sketch 39.1 (31720) - http://www.bohemiancoding.com/sketch -->
    <title>Fill 1</title>
    <desc>Created with Sketch.</desc>
    <defs></defs>
    <g id="Page-1" stroke="none" stroke-width="1" fill="none" fill-rule="evenodd">
        <g id="Home---Large-Devices-(-≥-1200px-)" transform="translate(-998.000000, -463.000000)" fill="#FFFFFF">
            <path d="M1028,491.344365 C1028,492.258805 1027.25881,493 1026.34437,493 L1018.69952,493 L1018.69952,481.382774 L1022.59917,481.382774 L1023.18264,476.854703 L1018.69952,476.854703 L1018.69952,473.964289 C1018.69952,472.65351 1019.06317,471.760317 1020.94353,471.760317 L1023.34118,471.7595 L1023.34118,467.709488 C1022.92604,467.654736 1021.50331,467.531339 1019.84686,467.531339 C1016.39013,467.531339 1014.02354,469.641334 1014.02354,473.515649 L1014.02354,476.854703 L1010.11408,476.854703 L1010.11408,481.382774 L1014.02354,481.382774 L1014.02354,493 L999.655635,493 C998.741195,493 998,492.258805 998,491.344365 L998,464.655635 C998,463.741195 998.741195,463 999.655635,463 L1026.34437,463 C1027.25881,463 1028,463.741195 1028,464.655635 L1028,491.344365 Z" id="Fill-1"></path>
        </g>
    </g>
</svg>