<?xml version="1.0" encoding="UTF-8" standalone="no"?>
<svg width="138px" height="142px" viewBox="0 0 138 142" version="1.1" xmlns="http://www.w3.org/2000/svg" xmlns:xlink="http://www.w3.org/1999/xlink">
    <!-- Generator: sketchtool 39.1 (31720) - http://www.bohemiancoding.com/sketch -->
    <title>6002FF26-FD99-4CE9-9EBE-4B77F27AFA03</title>
    <desc>Created with sketchtool.</desc>
    <defs></defs>
    <g id="Page-1" stroke="none" stroke-width="1" fill="none" fill-rule="evenodd">
        <g id="Home---Small-Devices-(-≥-768px-)" transform="translate(-253.000000, -159.000000)" fill="#6A792D">
            <g id="content-radio" transform="translate(150.000000, 159.000000)">
                <g id="logo" transform="translate(103.000000, 0.000000)">
                    <path d="M31.7894453,44.412014 C25.9537773,42.7353391 26.5985223,54.3233125 26.4152672,62.8537539 C26.2711215,69.5587696 30.1842874,72.7005002 35.2332996,72.7470901 C36.6820202,72.7600005 40.1163765,71.8972455 41.450004,69.6485814 C41.450004,69.6485814 42.6785951,76.3844699 45.1547733,75.0086646 C48.6271215,73.0799552 42.1617935,67.6744048 46.4437045,54.2351847 C48.2231781,48.6505718 42.9903522,45.7709795 41.552247,52.14313 C40.2242065,58.0246832 41.4561498,70.3345194 34.2142227,69.0608751 C24.4486275,67.3437849 40.2862227,46.8537736 31.7894453,44.412014" id="Fill-1"></path>
                    <path d="M92.3608858,64.1814537 C94.5074283,58.4026227 80.1906267,56.0377645 78.1211854,61.885077 C78.1211854,61.885077 78.9955579,56.4424792 76.3724405,56.1713597 C72.7581814,55.7980792 74.1175093,62.4301227 73.6744567,70.5940195 C73.3023595,77.4500313 72.8453393,83.7183368 76.7914688,84.3481424 C82.0125619,85.1822699 77.9139061,75.4034438 78.2340437,71.0964045 C79.2190397,57.8508412 89.593064,71.632469 92.3608858,64.1814537" id="Fill-3"></path>
                    <path d="M4.40231174,92.8161084 C1.38698381,86.8419367 1.57750202,72.2677194 6.34325101,71.6962915 C14.4818988,70.720149 12.5862146,91.1613252 13.2382227,94.6145906 C12.3286518,95.5823133 7.26623077,98.4899718 4.40231174,92.8161084 M19.9499393,57.6373696 C16.7692348,62.427709 6.06892713,63.1383452 6.92709717,51.7732174 C7.55787449,43.4089279 16.0613563,40.1740175 18.8297368,45.9781081 C20.4321012,49.3370711 20.612004,56.6398968 19.9499393,57.6373696 M49.4400364,132.827847 C28.8389271,128.483199 17.3765466,108.135203 15.884247,97.1377422 C23.5641984,88.3193415 28.8651862,43.2208844 17.5028138,39.9483652 C6.97011741,36.9144088 2.3027004,43.8467607 0.771850202,51.9230909 C-1.18920243,62.266609 7.95231984,66.4524023 13.4052753,66.0055884 C17.4111862,65.6772138 20.4455101,62.1133675 20.4455101,62.1133675 C20.4455101,62.1133675 20.6567004,79.3319824 15.4439879,92.8234056 C15.1221741,90.7880447 15.3406275,68.286248 6.82541296,69.1097103 C-0.884149798,69.8551487 -1.57973684,86.6791527 2.33175304,93.787199 C4.4224251,97.5862401 7.21762348,99.5216854 10.434085,99.4178404 C11.7124008,99.3718118 12.8996478,98.9833756 13.9941498,98.254777 C15.8686032,106.457405 24.9307895,144.319834 74.3750162,141.575521 C97.5489595,140.289528 120.260296,126.27046 131.305324,103.57669 C104.937826,92.0386746 103.205842,144.167154 49.4400364,132.827847" id="Fill-5"></path>
                    <path d="M133.151395,87.2395225 C131.764132,89.0598964 121.718067,94.5698531 121.304067,88.636658 C120.772739,81.0279107 130.395306,85.8087075 133.70563,81.6358246 C133.70563,81.6358246 134.207347,85.8541748 133.151395,87.2395225 M129.96231,70.6933738 C128.332011,69.9737564 122.771225,69.4006446 117.938432,72.8982547 C112.525703,76.8151738 118.666423,83.5325386 121.209087,77.8176985 C125.381492,69.1974453 132.81729,74.5985052 131.644011,78.253286 C129.93661,83.5718312 115.799711,76.2252222 115.11865,87.8940263 C114.872262,92.1045179 118.049055,93.5072667 118.769784,93.9142266 C123.898691,96.8089747 132.288197,91.2198712 132.870367,90.7399392 C132.870367,90.7399392 129.596359,96.6540493 132.417257,97.233897 C136.242148,98.0208733 143.351662,76.602432 129.96231,70.6933738" id="Fill-8"></path>
                    <path d="M108.509847,97.939762 C78.3861789,87.7421882 74.9540575,145.177425 23.9259036,100.458423 C23.9259036,100.458423 55.5279036,155.842582 108.509847,97.939762" id="Fill-11"></path>
                    <path d="M84.0797684,91.3159699 C63.5937522,84.5800815 58.7520194,116.36281 26.9757036,92.2258762 C26.9757036,92.2258762 55.527736,127.776211 84.0797684,91.3159699" id="Fill-13"></path>
                    <path d="M33.9825838,38.9933847 C57.6811506,48.2086414 64.7113287,-1.32820494 109.361313,32.9125614 C109.361313,32.9125614 77.3754826,-9.18674147 33.9825838,38.9933847" id="Fill-15"></path>
                    <path d="M53.4441036,44.045301 C70.0191887,51.6231755 75.8855854,19.2533022 105.572905,41.1758125 C105.572905,41.1758125 83.0085085,12.7980758 53.4441036,44.045301" id="Fill-17"></path>
                    <path d="M73.6506,49.4246938 C88.3316769,54.663531 83.0083409,38.8998681 103.012195,50.9565471 C103.012195,50.9565471 88.1243976,32.7348462 73.6506,49.4246938" id="Fill-19"></path>
                    <path d="M65.2939457,71.7543324 C64.7911117,72.4599167 55.9484964,78.4885369 54.5997838,72.3588784 C53.2505126,66.2292199 63.5384964,68.8500418 66.7722777,65.2339924 C67.4013789,64.530092 65.7967798,71.0487481 65.2939457,71.7543324 M67.2024802,80.174193 C70.9011036,79.626902 75.0651279,58.5110144 65.4973142,52.6311451 C55.9859296,46.7860779 43.6346502,57.8862607 49.2384559,60.8500516 C55.7546259,64.2965812 53.3332008,52.7703534 62.6373061,55.6342287 C65.5492737,56.5306632 67.7656543,58.9623189 66.4940429,61.0206942 C63.7535976,65.4562767 48.9596623,61.4658241 48.1450713,71.57527 C47.6098324,78.2174174 55.1713385,78.6973494 56.1138729,78.6563728 C62.4205287,78.3852533 63.548553,76.5856484 66.1090955,74.4301641 C66.1090955,74.4301641 62.3177271,80.8971783 67.2024802,80.174193" id="Fill-21"></path>
                    <path d="M129.805426,39.3870973 C132.820754,45.3612691 132.630236,59.9354864 127.864487,60.5069143 C119.725839,61.4830568 121.621523,41.0418806 120.969515,37.5886151 C121.879086,36.6208925 126.941507,33.713234 129.805426,39.3870973 M109.90158,79.5874409 C109.654074,80.6253291 109.257952,81.5498298 108.713774,82.3620657 C108.169037,83.1759855 107.469539,83.831612 106.614721,84.3306291 C105.759904,84.8307688 104.721272,85.0760674 103.499944,85.0687702 C102.335045,85.0620343 101.321555,84.818981 100.458357,84.3390489 C99.5940413,83.8591169 98.8883976,83.2169622 98.3397498,82.4125848 C97.7899846,81.6082075 97.3838065,80.6932493 97.120098,79.6677103 C96.8558308,78.6427326 96.7273287,77.5958633 96.7334745,76.5276636 C96.7401789,75.400525 96.8597417,74.3031365 97.0938389,73.2360595 C97.3268186,72.1689825 97.7017093,71.2220288 98.2179522,70.3940759 C98.7341951,69.5666842 99.4191668,68.9031992 100.274543,68.4036208 C101.12992,67.9040424 102.167434,67.6581825 103.388762,67.6649184 C104.638584,67.6727769 105.702357,67.9236888 106.580082,68.4182152 C107.457248,68.913303 108.170713,69.562755 108.71992,70.3671323 C109.269126,71.1715097 109.6686,72.1016236 109.918341,73.1557901 C110.167523,74.2110793 110.288762,75.3022932 110.282057,76.4294319 C110.275912,77.4976316 110.149086,78.5506755 109.90158,79.5874409 M68.149596,7.03799305 C85.1654988,5.34054916 110.668681,10.3890976 118.323491,35.0654636 C110.475928,43.3511677 110.203839,67.972524 110.203839,67.972524 C110.203839,67.972524 106.1063,60.7381798 97.4631425,63.5689369 C90.5810211,65.8232142 90.1033287,74.6578933 90.032932,76.2879783 C89.6865352,84.2947043 93.3063814,88.882967 99.5191749,89.9107513 C110.795507,91.7754698 114.061693,84.0729813 113.780665,75.5706061 L113.762228,70.0898382 C113.762228,70.0898382 113.551037,52.8712234 118.76375,39.3798001 C119.085564,41.4151611 118.86711,63.9169578 127.382325,63.0934954 C135.091887,62.3480571 135.787474,45.524053 131.875985,38.4160068 C129.785313,34.6169657 126.990114,32.6815204 123.773653,32.7853653 C122.495337,32.8313939 121.30809,33.2198301 120.213588,33.9484287 C118.339134,25.7458006 106.599078,-1.20954104 65.3851263,0.652932121 C44.4013045,1.60156974 23.225847,12.0494941 10.3588834,32.7892946 C30.9097093,41.7412904 41.7720413,9.66948014 68.149596,7.03799305" id="Fill-23"></path>
                    <path d="M59.6003563,85.4897632 C44.592996,81.2865688 49.1609636,95.7692903 29.513004,83.0575462 C29.513004,83.0575462 45.9120972,104.949184 59.6003563,85.4897632" id="Fill-26"></path>
                </g>
            </g>
        </g>
    </g>
</svg>