<?xml version="1.0" encoding="UTF-8" standalone="no"?>
<svg width="32px" height="35px" viewBox="0 0 32 35" version="1.1" xmlns="http://www.w3.org/2000/svg" xmlns:xlink="http://www.w3.org/1999/xlink">
    <!-- Generator: Sketch 39.1 (31720) - http://www.bohemiancoding.com/sketch -->
    <title>pause</title>
    <desc>Created with Sketch.</desc>
    <defs></defs>
    <g id="Page-1" stroke="none" stroke-width="1" fill="none" fill-rule="evenodd">
        <g id="Home---Large-Devices-(-≥-1200px-)" transform="translate(-412.000000, -458.000000)" fill="#6A792D">
            <g id="content-radio" transform="translate(246.000000, 174.000000)">
                <g id="pause" transform="translate(166.000000, 284.000000)">
                    <path d="M0.00426893939,4.11045833 C-0.0991401515,13.3210265 1.70203409,22.4984508 2.38851136,31.7198902 C2.52002652,33.4876553 4.01017803,34.8531856 5.78218561,34.8123523 C7.09733712,34.782125 8.41301894,34.7778826 9.72843561,34.7993598 C11.638322,34.8306477 13.1830947,33.2524659 13.1186629,31.3436402 L12.7010492,18.9443598 C12.5366553,14.0645114 12.6954811,8.43507955 11.459875,3.52023106 C11.0937008,2.06295833 9.80692045,1.02568561 8.30510227,0.983791667 C6.86851136,0.943488636 5.04135227,0.878261364 3.479875,0.817276515 C1.60180682,0.744094697 0.0252159091,2.23106439 0.00426893939,4.11045833" id="Fill-1"></path>
                    <path d="M19.9914659,32.0525227 C19.9628295,33.5829773 21.297072,34.7825227 22.8153295,34.5860455 L28.043322,33.9910455 C28.4482083,33.9385455 28.8562765,33.8863106 29.264875,33.8494545 C30.6190038,33.7272197 31.6170341,32.5274091 31.5162765,31.1711591 C31.0750644,25.2426364 30.6754811,19.2942273 30.5962008,13.336803 C30.5675644,11.1880152 30.5805568,9.03684091 30.4331326,6.89309091 C30.2796098,4.65494697 29.9518826,2.43271212 29.6244205,0.213393939 C29.5371856,-0.378159091 21.0828295,0.426840909 20.3247614,0.630477273 C17.7474886,1.32358333 18.9207841,4.26862121 19.1071856,6.39036364 C19.6377538,12.433697 19.940822,18.4966515 20.0153295,24.5625227 C20.0460871,27.0591894 20.0381326,29.5561212 19.9914659,32.0525227" id="Fill-4"></path>
                </g>
            </g>
        </g>
    </g>
</svg>